<mxfile host="app.diagrams.net" agent="Mozilla/5.0 (Windows NT 10.0; Win64; x64; rv:132.0) Gecko/20100101 Firefox/132.0" version="24.9.3">
  <diagram name="Page-1" id="JeT9hdmqLSIuItDdJ_t3">
    <mxGraphModel dx="1326" dy="690" grid="1" gridSize="10" guides="1" tooltips="1" connect="1" arrows="1" fold="1" page="1" pageScale="1" pageWidth="827" pageHeight="1169" math="0" shadow="0">
      <root>
        <mxCell id="0" />
        <mxCell id="1" parent="0" />
        <mxCell id="7V5J0tSeBzLmTqsxq7DQ-3" style="edgeStyle=orthogonalEdgeStyle;rounded=0;orthogonalLoop=1;jettySize=auto;html=1;exitX=0.5;exitY=1;exitDx=0;exitDy=0;entryX=0.5;entryY=0;entryDx=0;entryDy=0;" parent="1" source="7V5J0tSeBzLmTqsxq7DQ-1" target="7V5J0tSeBzLmTqsxq7DQ-2" edge="1">
          <mxGeometry relative="1" as="geometry" />
        </mxCell>
        <mxCell id="7V5J0tSeBzLmTqsxq7DQ-1" value="Start" style="rounded=1;whiteSpace=wrap;html=1;" parent="1" vertex="1">
          <mxGeometry x="354" y="40" width="120" height="60" as="geometry" />
        </mxCell>
        <mxCell id="7V5J0tSeBzLmTqsxq7DQ-5" style="edgeStyle=orthogonalEdgeStyle;rounded=0;orthogonalLoop=1;jettySize=auto;html=1;exitX=0.5;exitY=1;exitDx=0;exitDy=0;entryX=0.5;entryY=0;entryDx=0;entryDy=0;" parent="1" source="7V5J0tSeBzLmTqsxq7DQ-2" target="7V5J0tSeBzLmTqsxq7DQ-4" edge="1">
          <mxGeometry relative="1" as="geometry" />
        </mxCell>
        <mxCell id="7V5J0tSeBzLmTqsxq7DQ-2" value="Input fra brugeren:&lt;div&gt;Benyt lås&lt;/div&gt;" style="shape=parallelogram;perimeter=parallelogramPerimeter;whiteSpace=wrap;html=1;fixedSize=1;" parent="1" vertex="1">
          <mxGeometry x="331" y="130" width="166" height="60" as="geometry" />
        </mxCell>
        <mxCell id="7V5J0tSeBzLmTqsxq7DQ-7" style="edgeStyle=orthogonalEdgeStyle;rounded=0;orthogonalLoop=1;jettySize=auto;html=1;exitX=0;exitY=0.5;exitDx=0;exitDy=0;entryX=0.5;entryY=0;entryDx=0;entryDy=0;" parent="1" source="7V5J0tSeBzLmTqsxq7DQ-4" target="7V5J0tSeBzLmTqsxq7DQ-6" edge="1">
          <mxGeometry relative="1" as="geometry" />
        </mxCell>
        <mxCell id="7V5J0tSeBzLmTqsxq7DQ-11" value="Låsen er inaktiv" style="edgeLabel;html=1;align=center;verticalAlign=middle;resizable=0;points=[];" parent="7V5J0tSeBzLmTqsxq7DQ-7" vertex="1" connectable="0">
          <mxGeometry x="0.2245" y="2" relative="1" as="geometry">
            <mxPoint x="-2" as="offset" />
          </mxGeometry>
        </mxCell>
        <mxCell id="7V5J0tSeBzLmTqsxq7DQ-9" style="edgeStyle=orthogonalEdgeStyle;rounded=0;orthogonalLoop=1;jettySize=auto;html=1;exitX=1;exitY=0.5;exitDx=0;exitDy=0;entryX=0.5;entryY=0;entryDx=0;entryDy=0;" parent="1" source="7V5J0tSeBzLmTqsxq7DQ-4" target="7V5J0tSeBzLmTqsxq7DQ-8" edge="1">
          <mxGeometry relative="1" as="geometry" />
        </mxCell>
        <mxCell id="7V5J0tSeBzLmTqsxq7DQ-10" value="Låsen er aktiv" style="edgeLabel;html=1;align=center;verticalAlign=middle;resizable=0;points=[];" parent="7V5J0tSeBzLmTqsxq7DQ-9" vertex="1" connectable="0">
          <mxGeometry x="-0.3469" y="-3" relative="1" as="geometry">
            <mxPoint x="4" y="32" as="offset" />
          </mxGeometry>
        </mxCell>
        <mxCell id="7V5J0tSeBzLmTqsxq7DQ-4" value="Er låsen aktiv eller inaktiv?" style="rhombus;whiteSpace=wrap;html=1;" parent="1" vertex="1">
          <mxGeometry x="346" y="220" width="136" height="110" as="geometry" />
        </mxCell>
        <mxCell id="7V5J0tSeBzLmTqsxq7DQ-15" style="edgeStyle=orthogonalEdgeStyle;rounded=0;orthogonalLoop=1;jettySize=auto;html=1;exitX=0;exitY=0;exitDx=0;exitDy=0;entryX=0;entryY=0.5;entryDx=0;entryDy=0;" parent="1" source="7V5J0tSeBzLmTqsxq7DQ-6" target="7V5J0tSeBzLmTqsxq7DQ-1" edge="1">
          <mxGeometry relative="1" as="geometry" />
        </mxCell>
        <mxCell id="7V5J0tSeBzLmTqsxq7DQ-6" value="Aktiver lås" style="rounded=0;whiteSpace=wrap;html=1;" parent="1" vertex="1">
          <mxGeometry x="234" y="370" width="120" height="60" as="geometry" />
        </mxCell>
        <mxCell id="7V5J0tSeBzLmTqsxq7DQ-16" style="edgeStyle=orthogonalEdgeStyle;rounded=0;orthogonalLoop=1;jettySize=auto;html=1;exitX=1;exitY=0.5;exitDx=0;exitDy=0;entryX=1;entryY=0.5;entryDx=0;entryDy=0;" parent="1" source="7V5J0tSeBzLmTqsxq7DQ-8" target="7V5J0tSeBzLmTqsxq7DQ-1" edge="1">
          <mxGeometry relative="1" as="geometry">
            <Array as="points">
              <mxPoint x="680" y="400" />
              <mxPoint x="680" y="70" />
            </Array>
          </mxGeometry>
        </mxCell>
        <mxCell id="7V5J0tSeBzLmTqsxq7DQ-8" value="Deaktiver lås" style="rounded=0;whiteSpace=wrap;html=1;" parent="1" vertex="1">
          <mxGeometry x="474" y="370" width="120" height="60" as="geometry" />
        </mxCell>
        <mxCell id="7V5J0tSeBzLmTqsxq7DQ-13" value="Hertil skal være&amp;nbsp;&lt;div&gt;en kode til at&amp;nbsp;&lt;/div&gt;&lt;div&gt;manipulere låsen&lt;/div&gt;" style="strokeWidth=2;html=1;shape=mxgraph.flowchart.annotation_1;align=left;pointerEvents=1;" parent="1" vertex="1">
          <mxGeometry x="510" y="100" width="50" height="100" as="geometry" />
        </mxCell>
        <mxCell id="y1bEKRCRlc0KionHaVHA-1" style="edgeStyle=orthogonalEdgeStyle;rounded=0;orthogonalLoop=1;jettySize=auto;html=1;exitX=0.5;exitY=1;exitDx=0;exitDy=0;entryX=0.5;entryY=0;entryDx=0;entryDy=0;" edge="1" parent="1" source="y1bEKRCRlc0KionHaVHA-2" target="y1bEKRCRlc0KionHaVHA-4">
          <mxGeometry relative="1" as="geometry" />
        </mxCell>
        <mxCell id="y1bEKRCRlc0KionHaVHA-2" value="Start" style="rounded=1;whiteSpace=wrap;html=1;" vertex="1" parent="1">
          <mxGeometry x="354" y="560" width="120" height="60" as="geometry" />
        </mxCell>
        <mxCell id="y1bEKRCRlc0KionHaVHA-16" value="" style="edgeStyle=orthogonalEdgeStyle;rounded=0;orthogonalLoop=1;jettySize=auto;html=1;" edge="1" parent="1" source="y1bEKRCRlc0KionHaVHA-4" target="y1bEKRCRlc0KionHaVHA-15">
          <mxGeometry relative="1" as="geometry" />
        </mxCell>
        <mxCell id="y1bEKRCRlc0KionHaVHA-4" value="Input fra brugeren:&lt;div&gt;Benyt lås&lt;/div&gt;" style="shape=parallelogram;perimeter=parallelogramPerimeter;whiteSpace=wrap;html=1;fixedSize=1;" vertex="1" parent="1">
          <mxGeometry x="331" y="650" width="166" height="60" as="geometry" />
        </mxCell>
        <mxCell id="y1bEKRCRlc0KionHaVHA-20" style="edgeStyle=orthogonalEdgeStyle;rounded=0;orthogonalLoop=1;jettySize=auto;html=1;exitX=1;exitY=0.5;exitDx=0;exitDy=0;entryX=0;entryY=0.5;entryDx=0;entryDy=0;" edge="1" parent="1" source="y1bEKRCRlc0KionHaVHA-15" target="y1bEKRCRlc0KionHaVHA-18">
          <mxGeometry relative="1" as="geometry">
            <Array as="points">
              <mxPoint x="570" y="890" />
              <mxPoint x="570" y="890" />
            </Array>
          </mxGeometry>
        </mxCell>
        <mxCell id="y1bEKRCRlc0KionHaVHA-23" value="Lokalt" style="edgeLabel;html=1;align=center;verticalAlign=middle;resizable=0;points=[];" vertex="1" connectable="0" parent="y1bEKRCRlc0KionHaVHA-20">
          <mxGeometry x="0.0107" relative="1" as="geometry">
            <mxPoint as="offset" />
          </mxGeometry>
        </mxCell>
        <mxCell id="y1bEKRCRlc0KionHaVHA-21" style="edgeStyle=orthogonalEdgeStyle;rounded=0;orthogonalLoop=1;jettySize=auto;html=1;exitX=0;exitY=0.5;exitDx=0;exitDy=0;entryX=1;entryY=0.5;entryDx=0;entryDy=0;" edge="1" parent="1" source="y1bEKRCRlc0KionHaVHA-15" target="y1bEKRCRlc0KionHaVHA-19">
          <mxGeometry relative="1" as="geometry" />
        </mxCell>
        <mxCell id="y1bEKRCRlc0KionHaVHA-22" value="&lt;div&gt;Digitalt&lt;/div&gt;" style="edgeLabel;html=1;align=center;verticalAlign=middle;resizable=0;points=[];" vertex="1" connectable="0" parent="y1bEKRCRlc0KionHaVHA-21">
          <mxGeometry x="-0.0373" relative="1" as="geometry">
            <mxPoint as="offset" />
          </mxGeometry>
        </mxCell>
        <mxCell id="y1bEKRCRlc0KionHaVHA-15" value="Er input lokalt eller digitalt?" style="rhombus;whiteSpace=wrap;html=1;" vertex="1" parent="1">
          <mxGeometry x="344" y="830" width="140" height="120" as="geometry" />
        </mxCell>
        <mxCell id="y1bEKRCRlc0KionHaVHA-39" style="edgeStyle=orthogonalEdgeStyle;rounded=0;orthogonalLoop=1;jettySize=auto;html=1;exitX=0.5;exitY=1;exitDx=0;exitDy=0;entryX=0.5;entryY=0;entryDx=0;entryDy=0;" edge="1" parent="1" source="y1bEKRCRlc0KionHaVHA-18" target="y1bEKRCRlc0KionHaVHA-38">
          <mxGeometry relative="1" as="geometry" />
        </mxCell>
        <mxCell id="y1bEKRCRlc0KionHaVHA-43" value="Låst" style="edgeLabel;html=1;align=center;verticalAlign=middle;resizable=0;points=[];" vertex="1" connectable="0" parent="y1bEKRCRlc0KionHaVHA-39">
          <mxGeometry x="-0.0444" y="2" relative="1" as="geometry">
            <mxPoint as="offset" />
          </mxGeometry>
        </mxCell>
        <mxCell id="y1bEKRCRlc0KionHaVHA-41" style="edgeStyle=orthogonalEdgeStyle;rounded=0;orthogonalLoop=1;jettySize=auto;html=1;exitX=0.5;exitY=0;exitDx=0;exitDy=0;entryX=0.5;entryY=1;entryDx=0;entryDy=0;" edge="1" parent="1" source="y1bEKRCRlc0KionHaVHA-18" target="y1bEKRCRlc0KionHaVHA-37">
          <mxGeometry relative="1" as="geometry" />
        </mxCell>
        <mxCell id="y1bEKRCRlc0KionHaVHA-42" value="Ulåst" style="edgeLabel;html=1;align=center;verticalAlign=middle;resizable=0;points=[];" vertex="1" connectable="0" parent="y1bEKRCRlc0KionHaVHA-41">
          <mxGeometry x="-0.1778" y="-2" relative="1" as="geometry">
            <mxPoint as="offset" />
          </mxGeometry>
        </mxCell>
        <mxCell id="y1bEKRCRlc0KionHaVHA-18" value="Hvad er låsens nuværende status?" style="rhombus;whiteSpace=wrap;html=1;" vertex="1" parent="1">
          <mxGeometry x="580" y="830" width="130" height="120" as="geometry" />
        </mxCell>
        <mxCell id="y1bEKRCRlc0KionHaVHA-44" value="" style="edgeStyle=orthogonalEdgeStyle;rounded=0;orthogonalLoop=1;jettySize=auto;html=1;" edge="1" parent="1" source="y1bEKRCRlc0KionHaVHA-19" target="y1bEKRCRlc0KionHaVHA-25">
          <mxGeometry relative="1" as="geometry" />
        </mxCell>
        <mxCell id="y1bEKRCRlc0KionHaVHA-45" value="&lt;div&gt;Ulåst&lt;/div&gt;" style="edgeLabel;html=1;align=center;verticalAlign=middle;resizable=0;points=[];" vertex="1" connectable="0" parent="y1bEKRCRlc0KionHaVHA-44">
          <mxGeometry x="0.3467" y="-1" relative="1" as="geometry">
            <mxPoint as="offset" />
          </mxGeometry>
        </mxCell>
        <mxCell id="y1bEKRCRlc0KionHaVHA-46" value="" style="edgeStyle=orthogonalEdgeStyle;rounded=0;orthogonalLoop=1;jettySize=auto;html=1;" edge="1" parent="1" source="y1bEKRCRlc0KionHaVHA-19" target="y1bEKRCRlc0KionHaVHA-27">
          <mxGeometry relative="1" as="geometry" />
        </mxCell>
        <mxCell id="y1bEKRCRlc0KionHaVHA-47" value="Låst" style="edgeLabel;html=1;align=center;verticalAlign=middle;resizable=0;points=[];" vertex="1" connectable="0" parent="y1bEKRCRlc0KionHaVHA-46">
          <mxGeometry x="0.32" relative="1" as="geometry">
            <mxPoint as="offset" />
          </mxGeometry>
        </mxCell>
        <mxCell id="y1bEKRCRlc0KionHaVHA-19" value="Hvad er låsens nuværende status?" style="rhombus;whiteSpace=wrap;html=1;" vertex="1" parent="1">
          <mxGeometry x="120" y="830" width="130" height="120" as="geometry" />
        </mxCell>
        <mxCell id="y1bEKRCRlc0KionHaVHA-48" style="edgeStyle=orthogonalEdgeStyle;rounded=0;orthogonalLoop=1;jettySize=auto;html=1;exitX=1;exitY=0.5;exitDx=0;exitDy=0;entryX=0.25;entryY=1;entryDx=0;entryDy=0;" edge="1" parent="1" source="y1bEKRCRlc0KionHaVHA-25" target="y1bEKRCRlc0KionHaVHA-4">
          <mxGeometry relative="1" as="geometry" />
        </mxCell>
        <mxCell id="y1bEKRCRlc0KionHaVHA-25" value="Aktiver låsen, lås cyklen" style="rounded=0;whiteSpace=wrap;html=1;" vertex="1" parent="1">
          <mxGeometry x="125" y="740" width="120" height="60" as="geometry" />
        </mxCell>
        <mxCell id="y1bEKRCRlc0KionHaVHA-27" value="Deaktiver låsen, lås op for cyklen" style="rounded=0;whiteSpace=wrap;html=1;" vertex="1" parent="1">
          <mxGeometry x="125" y="980" width="120" height="60" as="geometry" />
        </mxCell>
        <mxCell id="y1bEKRCRlc0KionHaVHA-50" style="edgeStyle=orthogonalEdgeStyle;rounded=0;orthogonalLoop=1;jettySize=auto;html=1;entryX=0.75;entryY=1;entryDx=0;entryDy=0;" edge="1" parent="1" source="y1bEKRCRlc0KionHaVHA-37" target="y1bEKRCRlc0KionHaVHA-4">
          <mxGeometry relative="1" as="geometry" />
        </mxCell>
        <mxCell id="y1bEKRCRlc0KionHaVHA-37" value="Aktiver låsen, lås cyklen" style="rounded=0;whiteSpace=wrap;html=1;" vertex="1" parent="1">
          <mxGeometry x="585" y="740" width="120" height="60" as="geometry" />
        </mxCell>
        <mxCell id="y1bEKRCRlc0KionHaVHA-51" style="edgeStyle=orthogonalEdgeStyle;rounded=0;orthogonalLoop=1;jettySize=auto;html=1;exitX=1;exitY=0.5;exitDx=0;exitDy=0;entryX=1;entryY=0.5;entryDx=0;entryDy=0;" edge="1" parent="1" source="y1bEKRCRlc0KionHaVHA-38" target="y1bEKRCRlc0KionHaVHA-4">
          <mxGeometry relative="1" as="geometry">
            <Array as="points">
              <mxPoint x="725" y="1010" />
              <mxPoint x="725" y="680" />
            </Array>
          </mxGeometry>
        </mxCell>
        <mxCell id="y1bEKRCRlc0KionHaVHA-38" value="Deaktiver låsen, lås op for cyklen" style="rounded=0;whiteSpace=wrap;html=1;" vertex="1" parent="1">
          <mxGeometry x="585" y="980" width="120" height="60" as="geometry" />
        </mxCell>
        <mxCell id="y1bEKRCRlc0KionHaVHA-49" style="edgeStyle=orthogonalEdgeStyle;rounded=0;orthogonalLoop=1;jettySize=auto;html=1;exitX=0;exitY=0.5;exitDx=0;exitDy=0;entryX=0.057;entryY=0.413;entryDx=0;entryDy=0;entryPerimeter=0;" edge="1" parent="1" source="y1bEKRCRlc0KionHaVHA-27" target="y1bEKRCRlc0KionHaVHA-4">
          <mxGeometry relative="1" as="geometry">
            <Array as="points">
              <mxPoint x="105" y="1010" />
              <mxPoint x="105" y="675" />
            </Array>
          </mxGeometry>
        </mxCell>
      </root>
    </mxGraphModel>
  </diagram>
</mxfile>
